<mxfile host="Electron" agent="Mozilla/5.0 (Windows NT 10.0; Win64; x64) AppleWebKit/537.36 (KHTML, like Gecko) draw.io/24.7.5 Chrome/126.0.6478.183 Electron/31.3.0 Safari/537.36" version="24.7.5">
  <diagram name="Page-1" id="nJlFdU0WPlDK-CsyT02q">
    <mxGraphModel dx="724" dy="434" grid="1" gridSize="10" guides="1" tooltips="1" connect="1" arrows="1" fold="1" page="1" pageScale="1" pageWidth="850" pageHeight="1100" math="0" shadow="0">
      <root>
        <mxCell id="0" />
        <mxCell id="1" parent="0" />
        <mxCell id="qfliEWjpNazJxB2BeAzq-1" value="ov5640_ctrl.sv" style="rounded=0;whiteSpace=wrap;html=1;" parent="1" vertex="1">
          <mxGeometry x="320" y="240" width="200" height="120" as="geometry" />
        </mxCell>
        <mxCell id="qfliEWjpNazJxB2BeAzq-2" value="i_dvp_pclk&lt;div&gt;48-96MHz&lt;/div&gt;" style="endArrow=classic;html=1;rounded=0;entryX=0;entryY=0.25;entryDx=0;entryDy=0;" parent="1" edge="1">
          <mxGeometry width="50" height="50" relative="1" as="geometry">
            <mxPoint x="190" y="290" as="sourcePoint" />
            <mxPoint x="320" y="290" as="targetPoint" />
            <mxPoint as="offset" />
          </mxGeometry>
        </mxCell>
        <mxCell id="qfliEWjpNazJxB2BeAzq-3" value="iv_dvp_data[7:0]" style="endArrow=classic;html=1;rounded=0;entryX=0;entryY=0.25;entryDx=0;entryDy=0;" parent="1" edge="1">
          <mxGeometry width="50" height="50" relative="1" as="geometry">
            <mxPoint x="190" y="310" as="sourcePoint" />
            <mxPoint x="320" y="310" as="targetPoint" />
          </mxGeometry>
        </mxCell>
        <mxCell id="qfliEWjpNazJxB2BeAzq-4" value="i_dvp_vsync" style="endArrow=classic;html=1;rounded=0;entryX=0;entryY=0.25;entryDx=0;entryDy=0;" parent="1" edge="1">
          <mxGeometry width="50" height="50" relative="1" as="geometry">
            <mxPoint x="190" y="330" as="sourcePoint" />
            <mxPoint x="320" y="330" as="targetPoint" />
          </mxGeometry>
        </mxCell>
        <mxCell id="qfliEWjpNazJxB2BeAzq-5" value="i_dvp_href" style="endArrow=classic;html=1;rounded=0;entryX=0;entryY=0.25;entryDx=0;entryDy=0;" parent="1" edge="1">
          <mxGeometry width="50" height="50" relative="1" as="geometry">
            <mxPoint x="190" y="351" as="sourcePoint" />
            <mxPoint x="320" y="351" as="targetPoint" />
          </mxGeometry>
        </mxCell>
        <mxCell id="qfliEWjpNazJxB2BeAzq-6" value="o_dvp_pwdn" style="endArrow=classic;html=1;rounded=0;entryX=0;entryY=0.25;entryDx=0;entryDy=0;" parent="1" edge="1">
          <mxGeometry width="50" height="50" relative="1" as="geometry">
            <mxPoint x="520" y="351" as="sourcePoint" />
            <mxPoint x="650" y="351" as="targetPoint" />
          </mxGeometry>
        </mxCell>
        <mxCell id="qfliEWjpNazJxB2BeAzq-7" value="o_dvp_resetb" style="endArrow=classic;html=1;rounded=0;entryX=0;entryY=0.25;entryDx=0;entryDy=0;" parent="1" edge="1">
          <mxGeometry width="50" height="50" relative="1" as="geometry">
            <mxPoint x="520" y="331" as="sourcePoint" />
            <mxPoint x="650" y="331" as="targetPoint" />
          </mxGeometry>
        </mxCell>
        <mxCell id="qfliEWjpNazJxB2BeAzq-8" value="m_axis_dvp" style="endArrow=classic;html=1;rounded=0;entryX=0;entryY=0.25;entryDx=0;entryDy=0;" parent="1" edge="1">
          <mxGeometry width="50" height="50" relative="1" as="geometry">
            <mxPoint x="520" y="251" as="sourcePoint" />
            <mxPoint x="650" y="251" as="targetPoint" />
          </mxGeometry>
        </mxCell>
        <mxCell id="qfliEWjpNazJxB2BeAzq-9" value="s_axil_dvp" style="endArrow=classic;html=1;rounded=0;entryX=0;entryY=0.25;entryDx=0;entryDy=0;" parent="1" edge="1">
          <mxGeometry width="50" height="50" relative="1" as="geometry">
            <mxPoint x="190" y="251" as="sourcePoint" />
            <mxPoint x="320" y="251" as="targetPoint" />
          </mxGeometry>
        </mxCell>
        <mxCell id="qfliEWjpNazJxB2BeAzq-10" value="AXI VDMA" style="rounded=0;whiteSpace=wrap;html=1;" parent="1" vertex="1">
          <mxGeometry x="650" y="170" width="200" height="120" as="geometry" />
        </mxCell>
        <mxCell id="Fr9HWGvmIH2FQYx7Ea4P-5" style="edgeStyle=orthogonalEdgeStyle;rounded=0;orthogonalLoop=1;jettySize=auto;html=1;exitX=0;exitY=0.5;exitDx=0;exitDy=0;startArrow=classic;startFill=1;endArrow=none;endFill=0;" edge="1" parent="1" source="Fr9HWGvmIH2FQYx7Ea4P-1">
          <mxGeometry relative="1" as="geometry">
            <mxPoint x="250" y="415.16666666666674" as="targetPoint" />
          </mxGeometry>
        </mxCell>
        <mxCell id="Fr9HWGvmIH2FQYx7Ea4P-1" value="o_dvp_xvclk&lt;div&gt;typ=24MHz&lt;/div&gt;&lt;div&gt;6~54MHz&lt;/div&gt;" style="text;html=1;align=center;verticalAlign=middle;whiteSpace=wrap;rounded=0;" vertex="1" parent="1">
          <mxGeometry x="550" y="400" width="60" height="30" as="geometry" />
        </mxCell>
        <mxCell id="Fr9HWGvmIH2FQYx7Ea4P-4" value="pclk&lt;div&gt;data{7:0]&lt;/div&gt;&lt;div&gt;vsync&lt;/div&gt;&lt;div&gt;href&lt;/div&gt;" style="edgeStyle=orthogonalEdgeStyle;rounded=0;orthogonalLoop=1;jettySize=auto;html=1;exitX=1;exitY=0.5;exitDx=0;exitDy=0;" edge="1" parent="1" source="Fr9HWGvmIH2FQYx7Ea4P-2">
          <mxGeometry relative="1" as="geometry">
            <mxPoint x="720" y="590.1666666666667" as="targetPoint" />
          </mxGeometry>
        </mxCell>
        <mxCell id="Fr9HWGvmIH2FQYx7Ea4P-2" value="ov5640" style="rounded=0;whiteSpace=wrap;html=1;" vertex="1" parent="1">
          <mxGeometry x="400" y="560" width="120" height="60" as="geometry" />
        </mxCell>
        <mxCell id="Fr9HWGvmIH2FQYx7Ea4P-3" value="xclk&lt;div&gt;resetb&lt;/div&gt;&lt;div&gt;pwdn&lt;/div&gt;" style="endArrow=classic;html=1;rounded=0;entryX=0;entryY=0.5;entryDx=0;entryDy=0;" edge="1" parent="1" target="Fr9HWGvmIH2FQYx7Ea4P-2">
          <mxGeometry width="50" height="50" relative="1" as="geometry">
            <mxPoint x="250" y="590" as="sourcePoint" />
            <mxPoint x="300" y="550" as="targetPoint" />
          </mxGeometry>
        </mxCell>
      </root>
    </mxGraphModel>
  </diagram>
</mxfile>
